<?xml version="1.0" encoding="UTF-8" standalone="no"?>
<!DOCTYPE svg PUBLIC "-//W3C//DTD SVG 1.1//EN"
 "http://www.w3.org/Graphics/SVG/1.1/DTD/svg11.dtd">
<!-- Generated by graphviz version 2.42.4 (0)
 -->
<!-- Title: MDIO_PHY_FSM Pages: 1 -->
<svg width="2118pt" height="406pt"
 viewBox="0.00 0.00 2118.37 406.03" xmlns="http://www.w3.org/2000/svg" xmlns:xlink="http://www.w3.org/1999/xlink">
<g id="graph0" class="graph" transform="scale(1 1) rotate(0) translate(4 402.03)">
<title>MDIO_PHY_FSM</title>
<polygon fill="white" stroke="transparent" points="-4,4 -4,-402.03 2114.37,-402.03 2114.37,4 -4,4"/>
<!-- IDLE -->
<g id="node1" class="node">
<title>IDLE</title>
<ellipse fill="none" stroke="black" cx="60.57" cy="-255.03" rx="56.63" ry="56.63"/>
<ellipse fill="none" stroke="black" cx="60.57" cy="-255.03" rx="60.64" ry="60.64"/>
<text text-anchor="middle" x="60.57" y="-258.03" font-family="Times,serif" font-size="10.00">IDLE</text>
<text text-anchor="middle" x="60.57" y="-247.03" font-family="Times,serif" font-size="10.00">(wait preamble)</text>
</g>
<!-- PREAMBLE -->
<g id="node2" class="node">
<title>PREAMBLE</title>
<ellipse fill="none" stroke="black" cx="330.46" cy="-255.03" rx="52.15" ry="52.15"/>
<text text-anchor="middle" x="330.46" y="-258.03" font-family="Times,serif" font-size="10.00">PREAMBLE</text>
<text text-anchor="middle" x="330.46" y="-247.03" font-family="Times,serif" font-size="10.00">(count &#39;1&#39; bits)</text>
</g>
<!-- IDLE&#45;&gt;PREAMBLE -->
<g id="edge1" class="edge">
<title>IDLE&#45;&gt;PREAMBLE</title>
<path fill="none" stroke="black" d="M121.36,-255.03C164.99,-255.03 223.96,-255.03 267.98,-255.03"/>
<polygon fill="black" stroke="black" points="267.98,-258.53 277.98,-255.03 267.98,-251.53 267.98,-258.53"/>
<text text-anchor="middle" x="199.64" y="-258.83" font-family="Times,serif" font-size="14.00">detected &#39;1&#39; on mdio_i</text>
</g>
<!-- PREAMBLE&#45;&gt;PREAMBLE -->
<g id="edge2" class="edge">
<title>PREAMBLE&#45;&gt;PREAMBLE</title>
<path fill="none" stroke="black" d="M310.46,-303.68C311.77,-316.06 318.44,-325.36 330.46,-325.36 338.92,-325.36 344.72,-320.76 347.88,-313.73"/>
<polygon fill="black" stroke="black" points="351.37,-314.23 350.47,-303.68 344.59,-312.49 351.37,-314.23"/>
<text text-anchor="middle" x="330.46" y="-344.16" font-family="Times,serif" font-size="14.00">mdio_i == &#39;1&#39;</text>
<text text-anchor="middle" x="330.46" y="-329.16" font-family="Times,serif" font-size="14.00">&lt; 32 bits</text>
</g>
<!-- ST -->
<g id="node3" class="node">
<title>ST</title>
<ellipse fill="none" stroke="black" cx="547.11" cy="-257.03" rx="52.15" ry="52.15"/>
<text text-anchor="middle" x="547.11" y="-260.03" font-family="Times,serif" font-size="10.00">ST</text>
<text text-anchor="middle" x="547.11" y="-249.03" font-family="Times,serif" font-size="10.00">(start&#45;of&#45;frame</text>
</g>
<!-- PREAMBLE&#45;&gt;ST -->
<g id="edge3" class="edge">
<title>PREAMBLE&#45;&gt;ST</title>
<path fill="none" stroke="black" d="M382.88,-255.51C413.43,-255.8 452.37,-256.16 484.56,-256.46"/>
<polygon fill="black" stroke="black" points="484.72,-259.96 494.75,-256.55 484.78,-252.96 484.72,-259.96"/>
<text text-anchor="middle" x="438.79" y="-260.83" font-family="Times,serif" font-size="14.00">32+ bits of &#39;1&#39;</text>
</g>
<!-- OP -->
<g id="node4" class="node">
<title>OP</title>
<ellipse fill="none" stroke="black" cx="741.13" cy="-257.03" rx="58.88" ry="58.88"/>
<text text-anchor="middle" x="741.13" y="-260.03" font-family="Times,serif" font-size="10.00">OP</text>
<text text-anchor="middle" x="741.13" y="-249.03" font-family="Times,serif" font-size="10.00">(read/write kind</text>
</g>
<!-- ST&#45;&gt;OP -->
<g id="edge5" class="edge">
<title>ST&#45;&gt;OP</title>
<path fill="none" stroke="black" d="M599.57,-257.03C621.93,-257.03 648.43,-257.03 672.36,-257.03"/>
<polygon fill="black" stroke="black" points="672.43,-260.53 682.43,-257.03 672.43,-253.53 672.43,-260.53"/>
<text text-anchor="middle" x="640.94" y="-260.83" font-family="Times,serif" font-size="14.00">valid ST</text>
</g>
<!-- ERROR -->
<g id="node10" class="node">
<title>ERROR</title>
<ellipse fill="none" stroke="black" cx="1805.27" cy="-281.03" rx="53.07" ry="53.07"/>
<text text-anchor="middle" x="1805.27" y="-284.03" font-family="Times,serif" font-size="10.00">ERROR</text>
<text text-anchor="middle" x="1805.27" y="-273.03" font-family="Times,serif" font-size="10.00">(invalid frame)</text>
</g>
<!-- ST&#45;&gt;ERROR -->
<g id="edge4" class="edge">
<title>ST&#45;&gt;ERROR</title>
<path fill="none" stroke="black" d="M589.11,-288.31C626.4,-313.6 684.03,-345.03 740.13,-345.03 740.13,-345.03 740.13,-345.03 1504.74,-345.03 1607.98,-345.03 1634.67,-336.37 1734.24,-309.03 1738.29,-307.92 1742.42,-306.65 1746.55,-305.27"/>
<polygon fill="black" stroke="black" points="1747.88,-308.52 1756.15,-301.9 1745.56,-301.91 1747.88,-308.52"/>
<text text-anchor="middle" x="1082.54" y="-348.83" font-family="Times,serif" font-size="14.00">ST != 01 or 00</text>
</g>
<!-- PHY_ADDR -->
<g id="node5" class="node">
<title>PHY_ADDR</title>
<ellipse fill="none" stroke="black" cx="967.68" cy="-218.03" rx="55.72" ry="55.72"/>
<text text-anchor="middle" x="967.68" y="-221.03" font-family="Times,serif" font-size="10.00">PHY_ADDR</text>
<text text-anchor="middle" x="967.68" y="-210.03" font-family="Times,serif" font-size="10.00">(5&#45;bit PHYAD)</text>
</g>
<!-- OP&#45;&gt;PHY_ADDR -->
<g id="edge7" class="edge">
<title>OP&#45;&gt;PHY_ADDR</title>
<path fill="none" stroke="black" d="M799.08,-247.14C830.64,-241.66 869.97,-234.83 902.6,-229.16"/>
<polygon fill="black" stroke="black" points="903.24,-232.6 912.5,-227.44 902.05,-225.71 903.24,-232.6"/>
<text text-anchor="middle" x="855.82" y="-247.83" font-family="Times,serif" font-size="14.00">valid OP</text>
</g>
<!-- OP&#45;&gt;ERROR -->
<g id="edge6" class="edge">
<title>OP&#45;&gt;ERROR</title>
<path fill="none" stroke="black" d="M797.34,-274.43C842.43,-287.09 908.04,-302.03 966.68,-302.03 966.68,-302.03 966.68,-302.03 1504.74,-302.03 1587.03,-302.03 1681.74,-294.05 1742.25,-287.92"/>
<polygon fill="black" stroke="black" points="1742.81,-291.39 1752.4,-286.88 1742.09,-284.42 1742.81,-291.39"/>
<text text-anchor="middle" x="1205.89" y="-305.83" font-family="Times,serif" font-size="14.00">invalid OP</text>
</g>
<!-- REG_DEV -->
<g id="node6" class="node">
<title>REG_DEV</title>
<ellipse fill="none" stroke="black" cx="1205.89" cy="-164.03" rx="64.19" ry="64.19"/>
<text text-anchor="middle" x="1205.89" y="-167.03" font-family="Times,serif" font-size="10.00">REG/DEV</text>
<text text-anchor="middle" x="1205.89" y="-156.03" font-family="Times,serif" font-size="10.00">(RREG / DEVAD)</text>
</g>
<!-- PHY_ADDR&#45;&gt;REG_DEV -->
<g id="edge9" class="edge">
<title>PHY_ADDR&#45;&gt;REG_DEV</title>
<path fill="none" stroke="black" d="M1022.28,-205.78C1055,-198.3 1097.25,-188.64 1132.87,-180.5"/>
<polygon fill="black" stroke="black" points="1133.76,-183.88 1142.73,-178.24 1132.2,-177.06 1133.76,-183.88"/>
<text text-anchor="middle" x="1082.54" y="-204.83" font-family="Times,serif" font-size="14.00">valid PHYAD</text>
</g>
<!-- PHY_ADDR&#45;&gt;ERROR -->
<g id="edge8" class="edge">
<title>PHY_ADDR&#45;&gt;ERROR</title>
<path fill="none" stroke="black" d="M1023.51,-224.67C1057.47,-228.63 1101.99,-233.55 1141.54,-237.03 1256.97,-247.2 1599.6,-268.52 1741.57,-277.22"/>
<polygon fill="black" stroke="black" points="1741.65,-280.73 1751.84,-277.85 1742.07,-273.74 1741.65,-280.73"/>
<text text-anchor="middle" x="1354.74" y="-275.83" font-family="Times,serif" font-size="14.00">bad PHYAD</text>
<text text-anchor="middle" x="1354.74" y="-260.83" font-family="Times,serif" font-size="14.00">(no matching PHY)</text>
</g>
<!-- TA -->
<g id="node7" class="node">
<title>TA</title>
<ellipse fill="none" stroke="black" cx="1503.74" cy="-126.03" rx="50.41" ry="50.41"/>
<text text-anchor="middle" x="1503.74" y="-129.03" font-family="Times,serif" font-size="10.00">TA</text>
<text text-anchor="middle" x="1503.74" y="-118.03" font-family="Times,serif" font-size="10.00">(turn&#45;around)</text>
</g>
<!-- REG_DEV&#45;&gt;TA -->
<g id="edge11" class="edge">
<title>REG_DEV&#45;&gt;TA</title>
<path fill="none" stroke="black" d="M1269.99,-155.93C1321.43,-149.32 1393.54,-140.06 1443.82,-133.6"/>
<polygon fill="black" stroke="black" points="1444.41,-137.05 1453.88,-132.31 1443.52,-130.11 1444.41,-137.05"/>
<text text-anchor="middle" x="1354.74" y="-171.83" font-family="Times,serif" font-size="14.00">C22: REGAD latched</text>
<text text-anchor="middle" x="1354.74" y="-156.83" font-family="Times,serif" font-size="14.00">C45: DEV/REG latched</text>
</g>
<!-- REG_DEV&#45;&gt;ERROR -->
<g id="edge10" class="edge">
<title>REG_DEV&#45;&gt;ERROR</title>
<path fill="none" stroke="black" d="M1267.96,-182.3C1274.77,-184.04 1281.63,-185.66 1288.24,-187.03 1484.07,-227.68 1542.74,-189.29 1734.24,-247.03 1739.13,-248.51 1744.1,-250.29 1749.02,-252.25"/>
<polygon fill="black" stroke="black" points="1747.82,-255.54 1758.39,-256.22 1750.55,-249.1 1747.82,-255.54"/>
<text text-anchor="middle" x="1503.74" y="-217.83" font-family="Times,serif" font-size="14.00">C45 &amp; invalid DEVAD</text>
</g>
<!-- DATA -->
<g id="node8" class="node">
<title>DATA</title>
<ellipse fill="none" stroke="black" cx="1805.27" cy="-112.03" rx="47.25" ry="47.25"/>
<text text-anchor="middle" x="1805.27" y="-115.03" font-family="Times,serif" font-size="10.00">DATA</text>
<text text-anchor="middle" x="1805.27" y="-104.03" font-family="Times,serif" font-size="10.00">(16&#45;bit data)</text>
</g>
<!-- TA&#45;&gt;DATA -->
<g id="edge13" class="edge">
<title>TA&#45;&gt;DATA</title>
<path fill="none" stroke="black" d="M1542.5,-93.76C1555.51,-84.57 1570.73,-75.78 1586.24,-71.03 1649.14,-51.79 1670.75,-53.82 1734.24,-71.03 1741.98,-73.13 1749.75,-76.33 1757.14,-80.03"/>
<polygon fill="black" stroke="black" points="1755.81,-83.29 1766.27,-84.94 1759.12,-77.12 1755.81,-83.29"/>
<text text-anchor="middle" x="1660.24" y="-89.83" font-family="Times,serif" font-size="14.00">C22/C45 read</text>
<text text-anchor="middle" x="1660.24" y="-74.83" font-family="Times,serif" font-size="14.00">(Z, then 0)</text>
</g>
<!-- TA&#45;&gt;DATA -->
<g id="edge14" class="edge">
<title>TA&#45;&gt;DATA</title>
<path fill="none" stroke="black" d="M1554.2,-123.72C1607.38,-121.24 1691.8,-117.29 1747.62,-114.68"/>
<polygon fill="black" stroke="black" points="1747.87,-118.17 1757.69,-114.21 1747.54,-111.18 1747.87,-118.17"/>
<text text-anchor="middle" x="1660.24" y="-140.83" font-family="Times,serif" font-size="14.00">C22/C45 write</text>
<text text-anchor="middle" x="1660.24" y="-125.83" font-family="Times,serif" font-size="14.00">(10 from master)</text>
</g>
<!-- TA&#45;&gt;ERROR -->
<g id="edge12" class="edge">
<title>TA&#45;&gt;ERROR</title>
<path fill="none" stroke="black" d="M1550.86,-143.46C1562.3,-147.35 1574.62,-151.16 1586.24,-154.03 1650.86,-170.02 1678.06,-141.33 1734.24,-177.03 1752.23,-188.47 1766.71,-206.39 1777.73,-224.15"/>
<polygon fill="black" stroke="black" points="1774.76,-226 1782.86,-232.82 1780.78,-222.43 1774.76,-226"/>
<text text-anchor="middle" x="1660.24" y="-195.83" font-family="Times,serif" font-size="14.00">short preamble,</text>
<text text-anchor="middle" x="1660.24" y="-180.83" font-family="Times,serif" font-size="14.00">invalid ST, bad PHY/DEV</text>
</g>
<!-- DONE -->
<g id="node9" class="node">
<title>DONE</title>
<ellipse fill="none" stroke="black" cx="2057.34" cy="-53.03" rx="53.07" ry="53.07"/>
<text text-anchor="middle" x="2057.34" y="-56.03" font-family="Times,serif" font-size="10.00">DONE</text>
<text text-anchor="middle" x="2057.34" y="-45.03" font-family="Times,serif" font-size="10.00">(finalize, stats)</text>
</g>
<!-- DATA&#45;&gt;DONE -->
<g id="edge15" class="edge">
<title>DATA&#45;&gt;DONE</title>
<path fill="none" stroke="black" d="M1851.55,-101.35C1891.86,-91.84 1951.13,-77.85 1995.55,-67.37"/>
<polygon fill="black" stroke="black" points="1996.43,-70.76 2005.36,-65.06 1994.82,-63.95 1996.43,-70.76"/>
<text text-anchor="middle" x="1931.3" y="-113.83" font-family="Times,serif" font-size="14.00">16 bits done</text>
<text text-anchor="middle" x="1931.3" y="-98.83" font-family="Times,serif" font-size="14.00">read/write complete</text>
</g>
<!-- DONE&#45;&gt;IDLE -->
<g id="edge16" class="edge">
<title>DONE&#45;&gt;IDLE</title>
<path fill="none" stroke="black" d="M2004.19,-47.75C1953.65,-43.09 1874.79,-37.03 1806.27,-37.03 329.46,-37.03 329.46,-37.03 329.46,-37.03 228.75,-37.03 144.87,-130.87 99.09,-195.42"/>
<polygon fill="black" stroke="black" points="96.01,-193.72 93.16,-203.92 101.75,-197.72 96.01,-193.72"/>
<text text-anchor="middle" x="967.68" y="-40.83" font-family="Times,serif" font-size="14.00">return to idle</text>
</g>
<!-- ERROR&#45;&gt;IDLE -->
<g id="edge17" class="edge">
<title>ERROR&#45;&gt;IDLE</title>
<path fill="none" stroke="black" d="M1767.15,-318.32C1757.16,-326.58 1745.87,-334.52 1734.24,-340.03 1640.46,-384.48 1608.51,-383.03 1504.74,-383.03 329.46,-383.03 329.46,-383.03 329.46,-383.03 249.63,-383.03 168.34,-336.18 116.58,-299.17"/>
<polygon fill="black" stroke="black" points="118.36,-296.14 108.21,-293.09 114.24,-301.8 118.36,-296.14"/>
<text text-anchor="middle" x="855.82" y="-386.83" font-family="Times,serif" font-size="14.00">discard frame</text>
</g>
</g>
</svg>
